<?xml version="1.0" encoding="UTF-8" standalone="no"?>
<!DOCTYPE svg PUBLIC "-//W3C//DTD SVG 1.1//EN"
 "http://www.w3.org/Graphics/SVG/1.1/DTD/svg11.dtd">
<!-- Generated by graphviz version 2.40.1 (20161225.0304)
 -->
<!-- Title: Tree Pages: 1 -->
<svg width="819pt" height="306pt"
 viewBox="0.00 0.00 819.50 306.22" xmlns="http://www.w3.org/2000/svg" xmlns:xlink="http://www.w3.org/1999/xlink">
<g id="graph0" class="graph" transform="scale(1 1) rotate(0) translate(4 302.2161)">
<title>Tree</title>
<polygon fill="#ffffff" stroke="transparent" points="-4,4 -4,-302.2161 815.4974,-302.2161 815.4974,4 -4,4"/>
<!-- Start -->
<g id="node1" class="node">
<title>Start</title>
<ellipse fill="#d3d3d3" stroke="#000000" cx="390.2464" cy="-249.108" rx="49.2163" ry="49.2163"/>
<text text-anchor="middle" x="390.2464" y="-244.908" font-family="Times,serif" font-size="14.00" fill="#000000">Managers</text>
</g>
<!-- NotBuying -->
<g id="node2" class="node">
<title>NotBuying</title>
<polygon fill="#add8e6" stroke="#000000" points="256.4528,-147.2 136.04,-147.2 136.04,-111.2 256.4528,-111.2 256.4528,-147.2"/>
<text text-anchor="middle" x="196.2464" y="-125" font-family="Times,serif" font-size="14.00" fill="#000000">Not Buying (20%)</text>
</g>
<!-- Start&#45;&gt;NotBuying -->
<g id="edge1" class="edge">
<title>Start&#45;&gt;NotBuying</title>
<path fill="none" stroke="#000000" d="M348.1513,-223.0898C314.3329,-202.1872 267.2383,-173.0789 234.4861,-152.8353"/>
<polygon fill="#000000" stroke="#000000" points="235.998,-149.6552 225.6515,-147.3748 232.3177,-155.6097 235.998,-149.6552"/>
<text text-anchor="middle" x="296.8267" y="-169.4" font-family="Times,serif" font-size="14.00" fill="#000000"> 20%</text>
</g>
<!-- Buying -->
<g id="node3" class="node">
<title>Buying</title>
<polygon fill="#add8e6" stroke="#000000" points="437.9558,-147.2 342.537,-147.2 342.537,-111.2 437.9558,-111.2 437.9558,-147.2"/>
<text text-anchor="middle" x="390.2464" y="-125" font-family="Times,serif" font-size="14.00" fill="#000000">Buying (70%)</text>
</g>
<!-- Start&#45;&gt;Buying -->
<g id="edge2" class="edge">
<title>Start&#45;&gt;Buying</title>
<path fill="none" stroke="#000000" d="M390.2464,-199.9909C390.2464,-185.5842 390.2464,-170.3141 390.2464,-157.6585"/>
<polygon fill="#000000" stroke="#000000" points="393.7465,-157.2975 390.2464,-147.2975 386.7465,-157.2976 393.7465,-157.2975"/>
<text text-anchor="middle" x="404.8267" y="-169.4" font-family="Times,serif" font-size="14.00" fill="#000000"> 70%</text>
</g>
<!-- Undecided -->
<g id="node4" class="node">
<title>Undecided</title>
<polygon fill="#add8e6" stroke="#000000" points="667.8693,-147.2 552.6235,-147.2 552.6235,-111.2 667.8693,-111.2 667.8693,-147.2"/>
<text text-anchor="middle" x="610.2464" y="-125" font-family="Times,serif" font-size="14.00" fill="#000000">Undecided (10%)</text>
</g>
<!-- Start&#45;&gt;Undecided -->
<g id="edge3" class="edge">
<title>Start&#45;&gt;Undecided</title>
<path fill="none" stroke="#000000" d="M433.4488,-225.5611C472.4899,-204.2823 529.5982,-173.1562 568.2587,-152.0848"/>
<polygon fill="#000000" stroke="#000000" points="570.0768,-155.0801 577.1823,-147.2211 566.7268,-148.9337 570.0768,-155.0801"/>
<text text-anchor="middle" x="553.8267" y="-169.4" font-family="Times,serif" font-size="14.00" fill="#000000"> 10%</text>
</g>
<!-- Upgrade_NotBuying -->
<g id="node5" class="node">
<title>Upgrade_NotBuying</title>
<polygon fill="#add8e6" stroke="#000000" points="114.7403,-58.6014 -.2475,-58.6014 -.2475,.2014 114.7403,.2014 114.7403,-58.6014"/>
<text text-anchor="middle" x="57.2464" y="-41.8" font-family="Times,serif" font-size="14.00" fill="#000000">Upgrade </text>
<text text-anchor="middle" x="57.2464" y="-25" font-family="Times,serif" font-size="14.00" fill="#000000">P(G|D) = 0.1</text>
<text text-anchor="middle" x="57.2464" y="-8.2" font-family="Times,serif" font-size="14.00" fill="#000000">P(G int D) = 0.02</text>
</g>
<!-- NotBuying&#45;&gt;Upgrade_NotBuying -->
<g id="edge4" class="edge">
<title>NotBuying&#45;&gt;Upgrade_NotBuying</title>
<path fill="none" stroke="#000000" d="M171.0745,-111.0908C153.0379,-98.1147 128.1649,-80.2205 106.2694,-64.4684"/>
<polygon fill="#000000" stroke="#000000" points="108.2056,-61.5496 98.044,-58.5508 104.1176,-67.2319 108.2056,-61.5496"/>
<text text-anchor="middle" x="158.8267" y="-80.6" font-family="Times,serif" font-size="14.00" fill="#000000"> 10%</text>
</g>
<!-- NoUpgrade_NotBuying -->
<g id="node6" class="node">
<title>NoUpgrade_NotBuying</title>
<polygon fill="#add8e6" stroke="#000000" points="260.0187,-58.6014 132.4741,-58.6014 132.4741,.2014 260.0187,.2014 260.0187,-58.6014"/>
<text text-anchor="middle" x="196.2464" y="-41.8" font-family="Times,serif" font-size="14.00" fill="#000000">No Upgrade </text>
<text text-anchor="middle" x="196.2464" y="-25" font-family="Times,serif" font-size="14.00" fill="#000000">P(G|D) = 0.9</text>
<text text-anchor="middle" x="196.2464" y="-8.2" font-family="Times,serif" font-size="14.00" fill="#000000">P(G^c int D) = 0.18</text>
</g>
<!-- NotBuying&#45;&gt;NoUpgrade_NotBuying -->
<g id="edge5" class="edge">
<title>NotBuying&#45;&gt;NoUpgrade_NotBuying</title>
<path fill="none" stroke="#000000" d="M196.2464,-110.8585C196.2464,-99.0616 196.2464,-83.2707 196.2464,-68.7196"/>
<polygon fill="#000000" stroke="#000000" points="199.7465,-68.4182 196.2464,-58.4182 192.7465,-68.4182 199.7465,-68.4182"/>
<text text-anchor="middle" x="210.8267" y="-80.6" font-family="Times,serif" font-size="14.00" fill="#000000"> 90%</text>
</g>
<!-- Upgrade_Buying -->
<g id="node7" class="node">
<title>Upgrade_Buying</title>
<polygon fill="#add8e6" stroke="#000000" points="390.9695,-58.6014 277.5233,-58.6014 277.5233,.2014 390.9695,.2014 390.9695,-58.6014"/>
<text text-anchor="middle" x="334.2464" y="-41.8" font-family="Times,serif" font-size="14.00" fill="#000000">Upgrade </text>
<text text-anchor="middle" x="334.2464" y="-25" font-family="Times,serif" font-size="14.00" fill="#000000">P(G|B) = 0.4</text>
<text text-anchor="middle" x="334.2464" y="-8.2" font-family="Times,serif" font-size="14.00" fill="#000000">P(G int B) = 0.28</text>
</g>
<!-- Buying&#45;&gt;Upgrade_Buying -->
<g id="edge6" class="edge">
<title>Buying&#45;&gt;Upgrade_Buying</title>
<path fill="none" stroke="#000000" d="M379.9751,-110.8585C373.1765,-98.718 364.009,-82.3474 355.6672,-67.4515"/>
<polygon fill="#000000" stroke="#000000" points="358.5484,-65.4331 350.6086,-58.4182 352.4409,-68.8534 358.5484,-65.4331"/>
<text text-anchor="middle" x="383.8267" y="-80.6" font-family="Times,serif" font-size="14.00" fill="#000000"> 40%</text>
</g>
<!-- NoUpgrade_Buying -->
<g id="node8" class="node">
<title>NoUpgrade_Buying</title>
<polygon fill="#add8e6" stroke="#000000" points="535.2494,-58.6014 409.2434,-58.6014 409.2434,.2014 535.2494,.2014 535.2494,-58.6014"/>
<text text-anchor="middle" x="472.2464" y="-41.8" font-family="Times,serif" font-size="14.00" fill="#000000">No Upgrade </text>
<text text-anchor="middle" x="472.2464" y="-25" font-family="Times,serif" font-size="14.00" fill="#000000">P(G|B) = 0.6</text>
<text text-anchor="middle" x="472.2464" y="-8.2" font-family="Times,serif" font-size="14.00" fill="#000000">P(G^c int B) = 0.42</text>
</g>
<!-- Buying&#45;&gt;NoUpgrade_Buying -->
<g id="edge7" class="edge">
<title>Buying&#45;&gt;NoUpgrade_Buying</title>
<path fill="none" stroke="#000000" d="M405.2865,-110.8585C415.5233,-98.3745 429.4281,-81.4174 441.9143,-66.1904"/>
<polygon fill="#000000" stroke="#000000" points="444.6531,-68.3702 448.2875,-58.4182 439.2402,-63.9316 444.6531,-68.3702"/>
<text text-anchor="middle" x="445.8267" y="-80.6" font-family="Times,serif" font-size="14.00" fill="#000000"> 60%</text>
</g>
<!-- Upgrade_Undecided -->
<g id="node9" class="node">
<title>Upgrade_Undecided</title>
<polygon fill="#add8e6" stroke="#000000" points="666.9695,-58.6014 553.5233,-58.6014 553.5233,.2014 666.9695,.2014 666.9695,-58.6014"/>
<text text-anchor="middle" x="610.2464" y="-41.8" font-family="Times,serif" font-size="14.00" fill="#000000">Upgrade </text>
<text text-anchor="middle" x="610.2464" y="-25" font-family="Times,serif" font-size="14.00" fill="#000000">P(G|C) = 0.2</text>
<text text-anchor="middle" x="610.2464" y="-8.2" font-family="Times,serif" font-size="14.00" fill="#000000">P(G int C) = 0.02</text>
</g>
<!-- Undecided&#45;&gt;Upgrade_Undecided -->
<g id="edge8" class="edge">
<title>Undecided&#45;&gt;Upgrade_Undecided</title>
<path fill="none" stroke="#000000" d="M610.2464,-110.8585C610.2464,-99.0616 610.2464,-83.2707 610.2464,-68.7196"/>
<polygon fill="#000000" stroke="#000000" points="613.7465,-68.4182 610.2464,-58.4182 606.7465,-68.4182 613.7465,-68.4182"/>
<text text-anchor="middle" x="624.8267" y="-80.6" font-family="Times,serif" font-size="14.00" fill="#000000"> 20%</text>
</g>
<!-- NoUpgrade_Undecided -->
<g id="node10" class="node">
<title>NoUpgrade_Undecided</title>
<polygon fill="#add8e6" stroke="#000000" points="811.2494,-58.6014 685.2434,-58.6014 685.2434,.2014 811.2494,.2014 811.2494,-58.6014"/>
<text text-anchor="middle" x="748.2464" y="-41.8" font-family="Times,serif" font-size="14.00" fill="#000000">No Upgrade </text>
<text text-anchor="middle" x="748.2464" y="-25" font-family="Times,serif" font-size="14.00" fill="#000000">P(G|C) = 0.8</text>
<text text-anchor="middle" x="748.2464" y="-8.2" font-family="Times,serif" font-size="14.00" fill="#000000">P(G^c int C) = 0.08</text>
</g>
<!-- Undecided&#45;&gt;NoUpgrade_Undecided -->
<g id="edge9" class="edge">
<title>Undecided&#45;&gt;NoUpgrade_Undecided</title>
<path fill="none" stroke="#000000" d="M635.2372,-111.0908C653.1441,-98.1147 677.8381,-80.2205 699.5761,-64.4684"/>
<polygon fill="#000000" stroke="#000000" points="701.6985,-67.2527 707.7423,-58.5508 697.5911,-61.5844 701.6985,-67.2527"/>
<text text-anchor="middle" x="693.8267" y="-80.6" font-family="Times,serif" font-size="14.00" fill="#000000"> 80%</text>
</g>
</g>
</svg>
